<svg class="{{ with .class }}{{ . }} {{ end }}icon icon-reddit" width="25px" height="21px" viewBox="0 0 25 21">
    <g id="icons" stroke="none" stroke-width="1" fill="none" fill-rule="evenodd">
        <g id="Artboard" transform="translate(-828.000000, -101.000000)" fill-rule="nonzero" fill="#FFFFFF">
            <path d="M840.957583,117.904619 C840.961879,117.90454 840.966185,117.9045 840.9705,117.9045 C842.366265,117.9045 843.391075,117.649421 843.994592,117.04647 C844.263203,116.77811 844.698504,116.778314 844.966864,117.046925 C845.235223,117.315537 845.235019,117.750838 844.966408,118.019197 C844.038891,118.945845 842.698392,119.2795 840.9705,119.2795 C840.966185,119.2795 840.961879,119.27946 840.957583,119.279381 C840.953287,119.27946 840.948982,119.2795 840.944667,119.2795 C839.216767,119.2795 837.87527,118.945709 836.948531,118.018969 C836.680045,117.750484 836.680045,117.315183 836.948531,117.046697 C837.217016,116.778212 837.652317,116.778212 837.920803,117.046697 C838.523374,117.649269 839.54914,117.9045 840.944667,117.9045 C840.948982,117.9045 840.953287,117.90454 840.957583,117.904619 Z M840.481528,107.131488 L842.041016,102.201745 C842.149493,101.858837 842.50393,101.657487 842.85402,101.739891 L846.859964,102.682816 C847.273093,101.902449 848.093495,101.370833 849.038583,101.370833 C850.397625,101.370833 851.50025,102.473816 851.50025,103.833333 C851.50025,105.193446 850.397862,106.295833 849.038583,106.295833 C847.743691,106.295833 846.683217,105.298746 846.582995,104.030199 L843.159663,103.224411 L841.915697,107.156748 C844.344517,107.305695 846.553724,107.988229 848.264082,109.03938 C848.767512,108.652932 849.392249,108.432417 850.054126,108.432417 C851.677323,108.432417 852.992459,109.747889 852.992459,111.371583 C852.992459,112.347937 852.512468,113.234788 851.748047,113.774565 C851.779002,114.00263 851.794833,114.234081 851.794833,114.4685 C851.794833,118.601041 846.874932,121.811833 840.908167,121.811833 C834.942102,121.811833 830.022333,118.600946 830.022333,114.4685 C830.022333,114.237492 830.037707,114.009367 830.067779,113.784522 C829.294956,113.245639 828.809167,112.353808 828.809167,111.371583 C828.809167,109.747889 830.124303,108.432417 831.7475,108.432417 C832.410551,108.432417 833.038129,108.653554 833.54434,109.044687 C835.391042,107.907219 837.820976,107.200044 840.481528,107.131488 Z M832.336154,109.921578 C832.152549,109.847201 831.953443,109.807417 831.7475,109.807417 C830.883773,109.807417 830.184167,110.507202 830.184167,111.371583 C830.184167,111.717737 830.29735,112.042707 830.49305,112.306078 C830.888624,111.426 831.520112,110.621052 832.336154,109.921578 Z M851.318205,112.292971 C851.507961,112.031985 851.617459,111.712049 851.617459,111.371583 C851.617459,110.507202 850.917853,109.807417 850.054126,109.807417 C849.851965,109.807417 849.656541,109.845867 849.476097,109.917415 C850.290468,110.614382 850.92147,111.416257 851.318205,112.292971 Z M850.12525,103.833333 C850.12525,103.233108 849.638133,102.745833 849.038583,102.745833 C848.437029,102.745833 847.95025,103.232612 847.95025,103.833333 C847.95025,104.43455 848.436691,104.920833 849.038583,104.920833 C849.638471,104.920833 850.12525,104.434054 850.12525,103.833333 Z M850.419833,114.4685 C850.419833,111.24929 846.207896,108.501 840.908167,108.501 C835.609145,108.501 831.397333,111.249363 831.397333,114.4685 C831.397333,117.687829 835.609398,120.436833 840.908167,120.436833 C846.207643,120.436833 850.419833,117.687902 850.419833,114.4685 Z M839.247167,113.16925 C839.247167,114.207696 838.405612,115.04925 837.368,115.04925 C836.329138,115.04925 835.488,114.208112 835.488,113.16925 C835.488,112.131018 836.329341,111.290083 837.368,111.290083 C838.405409,111.290083 839.247167,112.131434 839.247167,113.16925 Z M837.872167,113.16925 C837.872167,112.890974 837.646166,112.665083 837.368,112.665083 C837.088584,112.665083 836.863,112.890558 836.863,113.16925 C836.863,113.448721 837.088529,113.67425 837.368,113.67425 C837.646221,113.67425 837.872167,113.448304 837.872167,113.16925 Z M846.432667,113.16925 C846.432667,114.207909 845.591732,115.04925 844.5535,115.04925 C843.515888,115.04925 842.674333,114.207696 842.674333,113.16925 C842.674333,112.131434 843.516091,111.290083 844.5535,111.290083 C845.591529,111.290083 846.432667,112.131221 846.432667,113.16925 Z M845.057667,113.16925 C845.057667,112.890612 844.832138,112.665083 844.5535,112.665083 C844.275334,112.665083 844.049333,112.890974 844.049333,113.16925 C844.049333,113.448304 844.275279,113.67425 844.5535,113.67425 C844.832192,113.67425 845.057667,113.448666 845.057667,113.16925 Z" id="reddit"></path>
        </g>
    </g>
</svg>